<?xml version="1.0" ?><svg id="Outline" fill="current" viewBox="0 0 512 512" xmlns="http://www.w3.org/2000/svg"><path class="cls-1" d="M256.36,386.62a11.08,11.08,0,0,1-2.22-.23,11.26,11.26,0,0,1-2.12-.64,11.9,11.9,0,0,1-2-1.05,10.59,10.59,0,0,1-1.72-1.41,11.13,11.13,0,0,1-1.41-1.72,10.8,10.8,0,0,1-1-2,10.4,10.4,0,0,1-.65-2.12,11,11,0,0,1-.22-2.21,11.41,11.41,0,0,1,3.32-8,11.19,11.19,0,0,1,3.68-2.45,11.29,11.29,0,0,1,2.12-.65,11,11,0,0,1,4.43,0,11.29,11.29,0,0,1,2.12.65,10.8,10.8,0,0,1,2,1,11.13,11.13,0,0,1,1.72,1.41,11.42,11.42,0,0,1,3.33,8,11.72,11.72,0,0,1-.87,4.33,11.51,11.51,0,0,1-1.05,2,11.28,11.28,0,0,1-3.13,3.13,11.51,11.51,0,0,1-2,1.05,11.26,11.26,0,0,1-2.12.64A11,11,0,0,1,256.36,386.62Z"/><path class="cls-1" d="M256,58.65c-108.38,0-196.56,88.18-196.56,196.56S147.62,451.77,256,451.77,452.56,363.6,452.56,255.21,364.38,58.65,256,58.65Zm0,370.45c-95.88,0-173.88-78-173.88-173.89S160.12,81.33,256,81.33s173.88,78,173.88,173.88S351.88,429.1,256,429.1Z"/><path class="cls-1" d="M256.35,122.72A11.34,11.34,0,0,0,245,134.06V331.49a11.34,11.34,0,1,0,22.68,0V134.06A11.34,11.34,0,0,0,256.35,122.72Z"/></svg>